# xmcd
#
# Track frame offsets:
#	150
#	30170
#	55768
#	92040
#	120514
#	151047
#	170589
#	190464
#	213018
#	232911
#	247524
#	268532
#
# Disc length: 3962 seconds
#
# Revision: 1
# Processed by: cddbd v1.5.2PL0 Copyright (c) Steve Scherf et al.
# Submitted via: audiograbber 1.83.01
#
DISCID=840f780c
DTITLE=Grateful Dead - 74-xx-xx Mars Hotel Sessions
DYEAR=1900
DGENRE=
TTITLE0=Pride Of Cucamonga
TTITLE1=Money Money
TTITLE2=Unbroken Chain
TTITLE3=Unbroken Chain 2
TTITLE4=Unbroken Chain 3
TTITLE5=Scarlet Begonias
TTITLE6=Pride of Cucamonga 2
TTITLE7=Ship Of Fools
TTITLE8=Money Money 2
TTITLE9=Loose Lucy
TTITLE10=US Blues
TTITLE11=Crazy Fingers
EXTD=
EXTT0=
EXTT1=
EXTT2=
EXTT3=
EXTT4=
EXTT5=
EXTT6=
EXTT7=
EXTT8=
EXTT9=
EXTT10=
EXTT11=
PLAYORDER=
